<?xml version="1.0" standalone="no"?>
<!DOCTYPE svg PUBLIC "-//W3C//DTD SVG 20010904//EN" "http://www.w3.org/TR/2001/REC-SVG-20010904/DTD/svg10.dtd">
<svg version="1.0" xmlns="http://www.w3.org/2000/svg"
    width="400.000000pt" height="400.000000pt" viewBox="0 0 400.000000 400.000000"
    preserveAspectRatio="xMidYMid meet">

    <g transform="translate(0.000000,400.000000) scale(0.100000,-0.100000)"
        fill="#2f55a2" stroke="none">
        <path
            d="M875 3540 c13 -6 15 -9 5 -9 -8 -1 -26 -4 -40 -6 -22 -5 -23 -4 -5 5
17 8 16 9 -10 7 -19 -1 -30 -8 -30 -17 0 -8 -7 -15 -15 -16 -34 -2 -40 -4 -40
-15 0 -5 4 -8 9 -5 12 8 41 -4 41 -16 0 -6 -7 -5 -15 2 -9 7 -19 10 -22 6 -4
-4 -1 -11 7 -16 13 -9 13 -10 0 -11 -31 -4 -35 -5 -55 -16 -17 -9 -21 -23 -23
-78 -1 -47 3 -74 15 -91 8 -14 13 -27 10 -30 -3 -3 -8 4 -12 15 -3 12 -11 18
-17 15 -8 -5 -9 13 -6 59 3 37 2 65 -2 62 -14 -9 -12 -122 3 -137 8 -8 22 -29
31 -46 10 -19 21 -30 28 -26 6 4 8 3 5 -3 -9 -14 19 -37 33 -28 6 3 7 11 4 17
-4 6 -10 5 -16 -3 -6 -10 -7 -7 -3 9 4 14 2 22 -6 22 -7 0 -9 3 -6 7 4 3 17
-2 29 -13 21 -19 21 -19 14 1 -5 15 -4 17 4 9 9 -9 9 -17 1 -31 -7 -14 -7 -24
2 -33 10 -10 8 -12 -8 -6 -14 5 -11 -2 13 -24 18 -18 37 -28 44 -24 7 5 8 3 4
-5 -9 -14 22 -53 35 -45 5 3 9 0 9 -6 0 -6 5 -8 11 -4 8 4 7 9 -2 15 -10 6 -8
8 8 7 13 -1 19 -7 16 -15 -3 -8 3 -24 13 -36 19 -22 19 -22 -2 -4 -31 26 -41
21 -14 -8 12 -13 27 -22 33 -18 6 3 7 1 3 -5 -10 -16 13 -25 29 -12 10 8 15 9
15 2 0 -6 7 -9 16 -5 13 5 13 8 2 15 -10 8 -10 9 1 6 9 -3 15 -18 16 -40 0
-25 -3 -34 -12 -31 -11 4 -11 8 -1 21 11 13 10 15 -4 9 -9 -3 -19 -1 -21 6 -2
7 -8 8 -13 4 -11 -10 63 -80 76 -72 6 4 8 11 5 16 -4 5 -1 9 4 9 15 0 14 -13
-1 -28 -10 -10 -3 -22 34 -58 26 -25 52 -43 58 -39 5 3 7 0 5 -7 -3 -8 6 -25
19 -37 21 -20 28 -22 41 -11 9 7 15 8 15 2 0 -6 -6 -12 -12 -15 -10 -3 -8 -10
5 -23 15 -17 19 -17 28 -4 8 12 9 11 4 -6 -6 -24 15 -47 37 -39 8 3 25 -6 38
-21 l25 -28 -32 23 c-39 26 -43 16 -8 -17 14 -13 30 -20 36 -16 7 4 9 3 6 -3
-8 -13 31 -55 46 -50 6 2 13 9 15 16 3 10 -2 11 -19 6 -21 -7 -22 -6 -7 9 9 9
19 16 21 16 12 0 16 -34 6 -52 -9 -17 -7 -24 15 -44 27 -26 42 -32 30 -12 -4
7 -3 8 5 4 6 -4 9 -11 6 -16 -3 -5 40 -55 96 -112 56 -57 96 -92 89 -78 -7 14
-19 30 -26 35 -10 8 -9 13 4 25 14 13 15 12 9 -2 -3 -9 0 -22 8 -28 8 -6 16
-24 20 -39 7 -32 85 -111 135 -136 73 -37 180 -14 241 52 15 15 53 56 85 90
33 34 69 72 80 85 12 13 40 40 62 60 30 28 40 44 38 62 -2 14 1 23 6 20 5 -3
7 -13 3 -21 -4 -13 -3 -14 10 -3 8 7 12 16 9 21 -3 5 -2 8 3 7 4 -1 18 3 30
10 18 10 22 19 19 44 -3 28 -2 30 9 15 16 -22 27 -22 23 0 -2 10 3 18 10 19 6
1 17 2 22 3 6 0 10 8 10 16 0 8 5 15 11 15 6 0 8 7 5 16 -3 8 -2 13 3 10 15
-10 24 25 26 102 2 76 -2 81 -22 29 -10 -27 -12 -28 -12 -9 -1 12 6 33 14 46
14 21 14 24 0 36 -8 7 -15 9 -15 6 0 -4 -9 -2 -20 4 -11 6 -20 16 -20 22 0 6
10 3 21 -8 15 -13 20 -14 17 -5 -2 8 -25 33 -51 55 -39 33 -56 40 -102 44 -30
2 -62 1 -72 -3 -18 -8 -27 -11 -40 -14 -5 -1 -1 -6 9 -11 10 -6 14 -18 11 -30
-3 -11 -9 -17 -15 -14 -5 3 -5 11 2 19 8 9 5 14 -10 18 -15 4 -38 -12 -90 -62
-38 -37 -70 -71 -70 -76 0 -4 7 -2 15 5 10 9 15 9 15 1 0 -6 -5 -11 -11 -11
-6 0 -9 -7 -6 -15 4 -8 2 -17 -2 -20 -5 -2 -11 5 -14 17 -6 20 -10 17 -61 -32
-30 -29 -52 -58 -49 -64 3 -6 2 -8 -2 -3 -5 4 -17 -1 -27 -10 -17 -16 -20 -15
-56 18 -20 19 -39 38 -43 42 -3 5 -10 9 -15 10 -5 1 -8 5 -7 8 1 4 -7 15 -17
24 -19 17 -21 17 -38 2 -10 -10 -23 -17 -28 -17 -5 0 2 9 16 20 l25 19 -29 30
c-16 17 -34 28 -39 24 -6 -3 -7 -2 -4 4 3 5 -21 36 -53 68 -47 46 -62 57 -72
47 -15 -15 -38 -16 -38 -1 0 5 4 8 8 5 4 -2 14 -1 22 4 12 8 3 22 -45 69 -48
47 -64 58 -75 50 -12 -9 -11 -10 5 -4 14 4 17 3 9 -5 -6 -6 -18 -8 -28 -4 -16
6 -15 8 2 20 19 13 14 19 -74 106 -73 71 -97 89 -106 80 -15 -15 -38 -16 -38
-1 0 5 4 8 8 5 4 -2 14 -1 22 4 12 8 2 23 -49 72 -35 35 -61 58 -57 51 3 -6 1
-15 -5 -19 -8 -5 -9 -3 -4 6 6 9 1 10 -16 5 l-24 -7 22 16 22 17 -39 36 c-34
29 -43 33 -55 23 -9 -7 -18 -10 -22 -7 -3 4 2 9 11 13 24 9 20 19 -21 46 -22
15 -59 28 -88 31 -32 4 -43 3 -30 -3z m58 -17 c-7 -2 -19 -2 -25 0 -7 3 -2 5
12 5 14 0 19 -2 13 -5z m131 -102 c-2 -3 -12 3 -22 13 -16 17 -16 18 5 5 12
-7 20 -15 17 -18z m-350 -94 c1 -35 -3 -53 -10 -50 -8 3 -10 31 -5 102 2 36
13 -4 15 -52z m420 18 c-5 -11 -2 -13 10 -9 9 3 16 1 16 -5 0 -14 -27 -15 -35
-1 -3 6 -3 15 0 20 9 15 15 12 9 -5z m67 -42 c13 -17 13 -17 -6 -3 -11 8 -22
16 -24 17 -2 2 0 3 6 3 6 0 17 -8 24 -17z m-21 -13 c8 -5 11 -10 5 -10 -5 0
-17 5 -25 10 -8 5 -10 10 -5 10 6 0 17 -5 25 -10z m107 -78 c17 -24 18 -29 6
-41 -12 -11 -14 -11 -12 0 3 27 -1 40 -11 34 -6 -4 -18 -4 -27 -1 -12 5 -13 9
-3 21 17 21 23 19 47 -13z m97 -111 c-2 -3 -12 3 -22 13 -16 17 -16 18 5 5 12
-7 20 -15 17 -18z m-514 2 c0 -6 -9 -9 -20 -6 -30 8 -33 21 -5 19 14 0 25 -6
25 -13z m10 -68 c0 -5 -5 -3 -10 5 -5 8 -10 20 -10 25 0 6 5 3 10 -5 5 -8 10
-19 10 -25z m574 -10 c-5 -11 -2 -13 10 -9 9 3 16 1 16 -5 0 -14 -27 -15 -35
-1 -3 6 -3 15 0 20 9 15 15 12 9 -5z m-500 -21 c3 -8 2 -12 -4 -9 -6 3 -10 10
-10 16 0 14 7 11 14 -7z m567 -21 c13 -17 13 -17 -6 -3 -11 8 -22 16 -24 17
-2 2 0 3 6 3 6 0 17 -8 24 -17z m-21 -13 c8 -5 11 -10 5 -10 -5 0 -17 5 -25
10 -8 5 -10 10 -5 10 6 0 17 -5 25 -10z m844 -53 c-10 -6 -23 -15 -27 -21 -5
-7 -6 -4 -3 7 5 16 2 18 -27 12 -23 -4 -28 -3 -17 4 8 5 32 9 54 9 33 0 36 -2
20 -11z m-732 -29 c15 -18 25 -35 22 -38 -3 -3 -14 5 -24 17 -9 12 -20 20 -23
16 -4 -3 -14 -3 -23 1 -13 5 -14 9 -4 21 17 21 21 19 52 -17z m833 -8 c3 -5 2
-10 -4 -10 -5 0 -13 5 -16 10 -3 6 -2 10 4 10 5 0 13 -4 16 -10z m-1330 -42
c0 -25 -3 -34 -12 -31 -11 4 -11 8 -1 21 11 13 10 15 -4 9 -12 -4 -15 -2 -11
9 3 7 10 14 17 14 6 0 4 5 -4 11 -12 9 -12 10 -1 7 9 -3 15 -18 16 -40z m1333
-8 c7 -11 9 -20 4 -20 -10 0 -32 22 -32 32 0 15 15 8 28 -12z m-788 -15 c-7
-8 -17 -15 -23 -15 -6 0 -2 7 9 15 25 19 30 19 14 0z m500 -16 c0 -5 -4 -9 -8
-9 -5 0 -9 7 -9 15 0 8 4 12 9 9 4 -3 8 -9 8 -15z m333 -6 c-3 -7 -6 -13 -8
-13 -2 0 -5 6 -8 13 -3 8 1 14 8 14 7 0 11 -6 8 -14z m-1302 -13 c1 -8 2 -22
3 -30 1 -8 5 -21 10 -28 4 -7 6 -16 3 -19 -8 -7 -29 36 -23 46 9 13 -32 44
-49 37 -9 -3 -13 -2 -10 4 9 15 65 7 66 -10z m529 -5 c7 -8 8 -15 2 -15 -5 0
-15 7 -22 15 -7 8 -8 15 -2 15 5 0 15 -7 22 -15z m-27 -20 c4 -8 3 -16 -1 -19
-4 -3 -9 4 -9 15 -2 23 3 25 10 4z m357 -19 c0 -3 -4 -8 -10 -11 -5 -3 -10 -1
-10 4 0 6 5 11 10 11 6 0 10 -2 10 -4z m-215 -89 c-19 -10 -48 10 -38 25 3 6
0 8 -8 6 -8 -3 -13 -11 -11 -17 1 -6 -2 -11 -8 -11 -8 0 -8 16 -1 48 1 2 19
-7 41 -19 33 -19 37 -25 25 -32z m675 33 c0 -5 -4 -10 -10 -10 -5 0 -10 5 -10
10 0 6 5 10 10 10 6 0 10 -4 10 -10z m-515 -20 c3 -6 -1 -7 -9 -4 -18 7 -21
14 -7 14 6 0 13 -4 16 -10z m-639 -39 c0 -15 -3 -17 -13 -9 -7 6 -10 14 -7 19
9 15 20 10 20 -10z m511 -26 c-16 -17 -17 -14 -10 14 4 15 8 19 13 10 5 -6 3
-18 -3 -24z m93 5 c0 -5 -2 -10 -4 -10 -3 0 -8 5 -11 10 -3 6 -1 10 4 10 6 0
11 -4 11 -10z m455 -19 c3 -5 1 -12 -5 -16 -5 -3 -10 1 -10 9 0 18 6 21 15 7z
m-637 -35 c-7 -8 -15 -12 -17 -11 -5 6 10 25 20 25 5 0 4 -6 -3 -14z m20 -20
c-18 -19 -35 -32 -37 -30 -6 6 50 64 62 64 5 0 -6 -15 -25 -34z m222 19 c0
-12 -19 -12 -23 0 -4 9 -1 12 9 8 7 -3 14 -7 14 -8z m53 -59 c4 -10 1 -13 -9
-9 -7 3 -14 9 -14 14 0 14 17 10 23 -5z m-577 -22 c15 -10 23 -23 19 -32 -3
-8 0 -22 7 -31 12 -14 11 -15 -5 -2 -10 8 -15 21 -12 31 6 18 -38 45 -56 35
-5 -4 -9 -1 -9 4 0 16 27 13 56 -5z m224 -13 c0 -6 -4 -13 -10 -16 -5 -3 -10
1 -10 9 0 9 5 16 10 16 6 0 10 -4 10 -9z m-30 -51 c0 -13 -5 -18 -15 -14 -11
5 -12 9 -2 20 16 18 17 17 17 -6z m445 10 c3 -5 1 -10 -4 -10 -6 0 -11 5 -11
10 0 6 2 10 4 10 3 0 8 -4 11 -10z m-578 -17 c-8 -8 11 -33 25 -33 7 0 6 5 -1
13 -6 8 -8 17 -4 20 13 14 20 6 17 -20 -1 -15 3 -31 9 -35 9 -5 9 -10 -1 -20
-10 -10 -13 -10 -10 -1 2 7 -10 23 -26 36 -17 14 -26 29 -22 35 4 7 10 12 13
12 4 0 3 -3 0 -7z m705 -7 c6 4 5 -2 -1 -15 -15 -27 -16 -27 -17 7 -1 15 1 21
3 14 3 -6 9 -9 15 -6z m-622 -16 c0 -5 -7 -10 -16 -10 -8 0 -12 5 -9 10 3 6
10 10 16 10 5 0 9 -4 9 -10z m36 -27 c-10 -10 -19 5 -10 18 6 11 8 11 12 0 2
-7 1 -15 -2 -18z m529 -26 c4 5 5 3 1 -4 -4 -7 -13 -10 -21 -6 -11 3 -13 1 -9
-10 3 -8 1 -18 -4 -21 -5 -3 -8 6 -6 19 1 14 -2 25 -7 25 -6 0 -7 5 -4 11 5 7
13 5 24 -5 10 -9 21 -13 26 -9z m-555 3 c-8 -5 -19 -10 -25 -10 -5 0 -3 5 5
10 8 5 20 10 25 10 6 0 3 -5 -5 -10z" />
        <path d="M1245 3220 c-3 -5 1 -10 9 -10 9 0 16 5 16 10 0 6 -4 10 -9 10 -6 0
-13 -4 -16 -10z" />
        <path d="M1565 2900 c-3 -5 1 -10 9 -10 9 0 16 5 16 10 0 6 -4 10 -9 10 -6 0
-13 -4 -16 -10z" />
        <path d="M1805 2660 c3 -5 11 -10 16 -10 6 0 7 5 4 10 -3 6 -11 10 -16 10 -6
0 -7 -4 -4 -10z" />
        <path
            d="M709 3453 c-11 -15 -11 -16 0 -6 7 6 20 9 29 6 10 -4 13 -2 8 5 -10
17 -21 15 -37 -5z" />
        <path
            d="M386 3083 c-29 -3 -36 -7 -25 -14 11 -7 10 -9 -5 -9 -11 0 -29 -8
-40 -17 -20 -17 -20 -17 -6 1 14 18 14 19 -8 7 -12 -7 -20 -16 -17 -22 4 -5
-1 -9 -9 -9 -9 0 -16 -7 -16 -15 0 -8 -4 -15 -10 -15 -5 0 -19 -19 -30 -42
-20 -41 -20 -42 -1 -82 11 -23 22 -57 25 -76 3 -19 -4 -7 -15 28 -11 34 -24
62 -30 62 -9 0 -3 -44 10 -65 3 -5 7 -19 8 -29 5 -30 24 -47 47 -41 12 3 15 2
9 -1 -7 -3 -13 -11 -13 -17 1 -16 214 -227 229 -227 6 0 11 -5 11 -12 0 -16
51 -68 67 -68 7 0 13 -5 13 -12 0 -19 52 -68 73 -68 12 0 17 -5 14 -14 -5 -14
41 -66 59 -66 5 0 18 -8 29 -17 20 -16 20 -16 0 -9 -16 6 -14 1 9 -23 17 -17
35 -31 42 -31 6 0 14 -9 17 -21 4 -14 10 -18 19 -13 7 4 10 3 5 -1 -9 -10 21
-45 38 -45 7 0 15 -9 18 -21 4 -13 10 -18 18 -13 7 4 10 3 6 -3 -4 -5 9 -23
28 -40 29 -26 36 -28 48 -16 12 12 16 11 31 -12 14 -21 15 -30 6 -39 -8 -8
-10 -6 -5 9 5 16 5 17 -3 5 -12 -16 -7 -30 12 -30 8 0 16 -9 19 -21 3 -12 10
-18 15 -15 5 3 14 -6 20 -19 7 -14 16 -25 22 -25 5 0 10 -10 10 -21 0 -12 8
-28 18 -36 15 -13 15 -14 -9 -9 -18 4 -32 0 -44 -14 -10 -11 -22 -20 -27 -20
-4 0 6 13 24 30 18 16 28 30 23 30 -6 0 -53 -43 -104 -95 -80 -80 -92 -97 -81
-110 8 -10 9 -15 1 -15 -6 0 -11 5 -11 10 0 6 -5 10 -11 10 -5 0 -8 -4 -5 -9
3 -5 -4 -11 -15 -14 -15 -4 -20 -11 -15 -23 4 -12 2 -15 -9 -10 -15 5 -22 -9
-7 -17 4 -2 1 -2 -7 0 -18 4 -86 -63 -72 -71 6 -4 11 -2 11 5 0 7 2 10 5 7 3
-3 3 -13 -1 -22 -5 -13 -9 -14 -21 -5 -11 10 -21 4 -53 -31 -22 -25 -40 -49
-40 -54 0 -5 -3 -7 -6 -3 -4 3 -39 -26 -79 -66 -78 -77 -96 -115 -90 -192 5
-61 5 -61 20 -41 11 15 15 16 16 5 0 -9 4 -7 10 6 8 17 9 16 3 -5 -3 -14 -6
-30 -6 -37 -1 -7 -5 -10 -9 -7 -5 2 -6 12 -3 22 5 13 4 14 -4 3 -6 -9 -5 -23
5 -42 15 -30 30 -41 19 -14 -11 30 4 14 18 -19 30 -72 157 -97 254 -50 28 14
53 30 53 35 3 19 5 25 19 46 8 13 19 23 24 23 5 0 -1 -12 -15 -28 -51 -58 61
47 129 121 9 10 16 26 15 35 -1 10 0 12 3 5 8 -18 26 -16 22 1 -2 8 -1 14 2
14 16 -4 51 26 46 38 -3 8 -2 13 3 10 13 -8 34 21 25 35 -5 8 -2 10 8 7 18 -7
39 4 42 23 5 30 28 60 42 55 16 -6 138 109 130 123 -3 5 3 16 14 26 11 10 20
15 20 11 0 -4 9 -2 20 4 26 14 25 29 -2 39 -18 6 -19 9 -5 14 10 4 17 13 17
20 0 11 -13 14 -50 12 -36 -2 -48 1 -41 9 6 7 35 10 77 8 60 -3 66 -5 46 -16
-18 -10 -20 -14 -10 -25 11 -11 10 -13 -4 -8 -18 6 -25 -7 -9 -17 12 -8 43 29
34 39 -5 4 -3 5 3 2 7 -4 44 25 86 66 61 58 77 81 86 119 16 62 15 85 -4 140
-12 37 -38 67 -135 158 -90 84 -123 110 -132 101 -6 -6 -15 -11 -21 -11 -5 0
-1 7 10 14 18 14 14 20 -75 108 -51 51 -88 83 -82 71 6 -12 15 -24 21 -26 6
-3 5 -4 -2 -3 -7 1 -23 20 -34 42 -12 21 -27 38 -33 36 -7 -1 -10 1 -7 6 3 5
-15 28 -39 52 -38 37 -46 41 -60 30 -8 -7 -18 -10 -22 -6 -3 3 -2 6 4 6 29 0
17 32 -29 76 -28 27 -44 39 -37 27 8 -13 17 -23 21 -23 5 0 8 -5 8 -12 0 -6
-7 -4 -18 5 -10 10 -21 15 -23 13 -2 -2 -5 7 -6 21 -2 36 -335 368 -360 359
-12 -5 -13 -4 -4 7 8 11 6 18 -9 32 -11 10 -23 15 -27 12 -3 -4 -1 -7 6 -7 7
0 9 -4 6 -10 -4 -6 -11 -5 -20 3 -8 7 -10 16 -4 23 6 7 5 15 -3 22 -15 11
-105 43 -116 40 -4 -1 -25 -3 -46 -5z m134 -33 c8 -5 11 -10 5 -10 -5 0 -17 5
-25 10 -8 5 -10 10 -5 10 6 0 17 -5 25 -10z m-73 -6 c-3 -3 -12 -4 -19 -1 -8
3 -5 6 6 6 11 1 17 -2 13 -5z m-133 -40 c3 -8 2 -12 -4 -9 -6 3 -10 10 -10 16
0 14 7 11 14 -7z m-26 -55 c-3 -8 -7 -3 -11 10 -4 17 -3 21 5 13 5 -5 8 -16 6
-23z m368 -57 c-18 -16 -18 -16 -6 6 6 13 14 21 18 18 3 -4 -2 -14 -12 -24z
m-396 -3 c0 -5 -7 -9 -15 -9 -9 0 -12 6 -9 15 6 15 24 11 24 -6z m430 1 c0 -5
-5 -10 -11 -10 -5 0 -7 5 -4 10 3 6 8 10 11 10 2 0 4 -4 4 -10z m68 -90 c15
-9 14 -10 -7 -8 -17 2 -25 10 -27 28 -3 21 -2 22 6 8 6 -10 18 -22 28 -28z
m49 -35 c9 -24 -1 -27 -15 -5 -8 13 -8 20 -2 20 6 0 13 -7 17 -15z m37 -33 c2
-4 -4 -8 -14 -8 -10 0 -16 4 -14 8 3 4 9 8 14 8 5 0 11 -4 14 -8z m-528 -24
c5 -7 3 -8 -6 -3 -10 6 -12 4 -6 -10 5 -15 4 -16 -9 -5 -8 7 -12 16 -9 21 7
12 21 11 30 -3z m614 -75 c0 -21 -17 -15 -25 10 -4 13 -8 17 -12 10 -2 -7 -12
-13 -21 -13 -13 0 -13 2 3 13 12 9 15 19 10 28 -5 8 4 3 18 -10 15 -14 27 -30
27 -38z m-438 -93 c7 0 6 -5 -2 -15 -14 -17 -34 -9 -26 11 3 7 1 16 -4 19 -6
4 -10 1 -10 -5 0 -6 -5 -8 -12 -4 -9 6 -9 9 0 12 7 2 12 11 12 20 1 11 6 8 16
-10 8 -16 20 -28 26 -28z m48 -30 c0 -5 -5 -10 -11 -10 -5 0 -7 5 -4 10 3 6 8
10 11 10 2 0 4 -4 4 -10z m450 0 c0 -5 -2 -10 -4 -10 -3 0 -8 5 -11 10 -3 6
-1 10 4 10 6 0 11 -4 11 -10z m40 0 c0 -5 -4 -10 -10 -10 -5 0 -10 5 -10 10 0
6 5 10 10 10 6 0 10 -4 10 -10z m54 -25 c-4 -8 -13 -15 -22 -15 -13 0 -12 3 4
15 24 18 25 18 18 0z m-523 -22 c12 -14 12 -16 0 -8 -11 6 -13 4 -8 -9 4 -9 3
-15 -2 -11 -6 3 -9 14 -8 25 2 24 1 24 18 3z m563 -12 c4 -5 -3 -7 -14 -4 -23
6 -26 13 -6 13 8 0 17 -4 20 -9z m-471 -80 c-5 -7 -43 31 -43 42 0 6 10 -1 23
-14 13 -13 22 -26 20 -28z m491 40 c7 -11 -14 -20 -32 -13 -11 4 -11 6 0 13
17 11 26 11 32 0z m-529 -31 c10 -11 16 -20 13 -20 -3 0 -13 9 -23 20 -10 11
-16 20 -13 20 3 0 13 -9 23 -20z m102 -57 c-4 -3 -1 -13 6 -22 11 -14 10 -14
-5 -2 -16 12 -16 31 -1 31 4 0 3 -3 0 -7z m-17 -28 c13 -14 21 -25 18 -25 -2
0 -15 11 -28 25 -13 14 -21 25 -18 25 2 0 15 -11 28 -25z m560 -25 c0 -5 -7
-10 -16 -10 -8 0 -12 5 -9 10 3 6 10 10 16 10 5 0 9 -4 9 -10z m44 2 c3 -5 -1
-9 -9 -9 -8 0 -12 4 -9 9 3 4 7 8 9 8 2 0 6 -4 9 -8z m-509 -51 c0 -16 -3 -27
-7 -25 -6 4 -5 29 1 52 4 11 7 -3 6 -27z m45 -11 c0 -5 -4 -10 -9 -10 -6 0
-13 5 -16 10 -3 6 1 10 9 10 9 0 16 -4 16 -10z m37 -22 c-3 -8 -6 -5 -6 6 -1
11 2 17 5 13 3 -3 4 -12 1 -19z m530 -23 c0 -8 -7 -15 -15 -15 -12 0 -12 3 -2
15 7 8 13 15 15 15 1 0 2 -7 2 -15z m-513 -9 c18 7 22 -11 5 -22 -6 -3 -21 4
-33 17 -11 12 -14 17 -5 11 9 -7 24 -10 33 -6z m551 -26 c3 -6 -1 -7 -9 -4
-18 7 -21 14 -7 14 6 0 13 -4 16 -10z m-490 -54 c41 -43 42 -44 16 -42 -16 2
-26 9 -26 20 0 9 -5 20 -10 24 -16 11 -38 42 -30 42 4 0 26 -20 50 -44z m504
18 c-13 -16 -12 -16 11 -5 24 11 24 11 6 -3 -19 -16 -56 -22 -56 -10 0 8 44
43 49 38 2 -2 -2 -11 -10 -20z m-134 -44 c-3 -5 -11 -10 -16 -10 -6 0 -7 5 -4
10 3 6 11 10 16 10 6 0 7 -4 4 -10z m-88 -58 c13 -8 7 -20 -22 -42 -20 -15
-20 -14 -1 8 11 12 16 25 12 29 -4 4 -11 1 -16 -7 -6 -8 -10 -10 -10 -4 0 22
17 29 37 16z m-121 -58 c-4 -9 -1 -23 5 -31 9 -11 9 -17 -1 -26 -10 -9 -11 -9
-5 1 4 8 -1 22 -11 33 -16 17 -16 22 -4 29 21 13 23 12 16 -6z m84 -170 c0 -2
-7 -4 -15 -4 -8 0 -15 4 -15 10 0 5 7 7 15 4 8 -4 15 -8 15 -10z m-160 -34 c0
-11 -42 -52 -47 -46 -3 2 6 15 19 29 27 29 28 30 28 17z m187 -46 c-3 -3 -12
-4 -19 -1 -8 3 -5 6 6 6 11 1 17 -2 13 -5z m58 -4 c3 -6 -1 -7 -9 -4 -18 7
-21 14 -7 14 6 0 13 -4 16 -10z m45 -50 c-35 -24 -54 -31 -30 -11 14 11 30 21
35 21 6 0 3 -5 -5 -10z m-420 -100 c0 -5 -2 -10 -4 -10 -3 0 -8 5 -11 10 -3 6
-1 10 4 10 6 0 11 -4 11 -10z m483 3 c-7 -2 -19 -2 -25 0 -7 3 -2 5 12 5 14 0
19 -2 13 -5z m-79 -102 c3 -5 -1 -14 -8 -20 -10 -9 -16 -9 -21 -1 -4 6 -1 9 7
8 7 -2 12 3 11 10 -3 14 3 16 11 3z m-602 -33 c-7 -7 -8 -17 -1 -29 7 -14 6
-17 -5 -13 -19 7 -9 54 12 54 3 0 1 -5 -6 -12z m498 -47 c0 -5 -9 -7 -20 -4
-11 3 -20 7 -20 9 0 2 9 4 20 4 11 0 20 -4 20 -9z m-578 -57 c-9 -16 -10 -14
-9 8 1 15 6 23 11 18 4 -4 4 -16 -2 -26z m512 -29 c3 -8 1 -15 -4 -15 -6 0
-10 7 -10 15 0 8 2 15 4 15 2 0 6 -7 10 -15z m-544 -15 c0 -5 -9 -10 -21 -10
-11 0 -17 5 -14 10 3 6 13 10 21 10 8 0 14 -4 14 -10z m-20 -44 c8 -3 5 -4 -7
-2 -12 2 -24 -1 -26 -7 -2 -6 -6 -2 -9 11 -5 18 -3 20 10 13 10 -4 24 -11 32
-15z m-53 -18 c-3 -8 -6 -5 -6 6 -1 11 2 17 5 13 3 -3 4 -12 1 -19z m513 -18
c0 -5 -2 -10 -4 -10 -3 0 -8 5 -11 10 -3 6 -1 10 4 10 6 0 11 -4 11 -10z
m-497 -51 c-8 -8 -13 -7 -18 2 -5 8 -4 10 3 5 7 -4 12 -2 12 5 0 7 3 9 7 6 4
-4 2 -12 -4 -18z m451 -8 c3 -5 -1 -14 -8 -20 -10 -9 -16 -9 -21 -1 -4 6 -1 9
7 8 7 -2 12 3 11 10 -3 14 3 16 11 3z m-371 -152 c-6 -6 -7 3 -4 23 4 28 6 29
9 9 2 -13 0 -27 -5 -32z m-26 9 c-3 -8 -6 -5 -6 6 -1 11 2 17 5 13 3 -3 4 -12
1 -19z m124 -26 c-7 -2 -18 1 -23 6 -8 8 -4 9 13 5 13 -4 18 -8 10 -11z m102
1 c-9 -7 -31 -12 -47 -11 -30 1 -30 1 4 6 33 5 34 5 10 13 -21 6 -19 7 13 6
32 -2 35 -4 20 -14z m-136 -9 c-3 -3 -12 -4 -19 -1 -8 3 -5 6 6 6 11 1 17 -2
13 -5z" />
        <path d="M1003 1986 c0 -8 6 -12 14 -9 7 3 10 9 7 14 -8 14 -21 11 -21 -5z" />
        <path
            d="M1815 1616 c-38 -17 -125 -102 -126 -124 0 -9 -3 -12 -5 -5 -3 6 -40
-23 -84 -67 -71 -72 -78 -83 -75 -112 3 -26 2 -29 -6 -15 -6 9 -7 22 -4 27 14
22 -8 8 -41 -27 -32 -34 -33 -37 -19 -59 9 -14 11 -25 5 -29 -6 -3 -10 1 -10
10 0 9 -5 13 -10 10 -6 -4 -10 -12 -9 -18 3 -29 -3 -42 -11 -22 -5 13 -3 26 8
38 22 25 7 32 -17 8 -12 -12 -18 -28 -15 -38 4 -13 3 -14 -3 -5 -7 10 -35 -12
-111 -87 -82 -82 -98 -102 -86 -112 8 -6 14 -16 14 -21 0 -5 -7 -2 -16 6 -8 9
-17 16 -19 16 -12 0 -70 -66 -70 -79 0 -10 -7 -15 -18 -13 -15 3 -18 -1 -12
-20 3 -13 3 -18 -2 -11 -6 8 -14 6 -31 -7 -12 -10 -22 -22 -22 -26 0 -4 5 -3
12 4 7 7 19 12 27 12 14 0 7 -15 -7 -15 -4 0 -13 -4 -19 -8 -7 -5 -13 -5 -13
-1 0 4 -9 -1 -19 -10 -12 -11 -17 -25 -13 -38 4 -16 2 -19 -8 -13 -10 6 -12 4
-7 -8 3 -9 2 -19 -3 -22 -13 -8 -13 -75 -1 -75 5 0 12 -7 15 -16 3 -8 2 -12
-4 -9 -6 3 -10 1 -10 -4 0 -6 4 -11 10 -11 5 0 7 -6 5 -13 -2 -6 4 -22 13 -33
14 -17 27 -21 57 -18 26 2 34 0 25 -6 -8 -5 -24 -7 -35 -4 -14 3 -10 -4 15
-26 19 -17 41 -28 48 -25 7 2 10 0 7 -5 -3 -6 0 -10 7 -11 7 -1 34 -3 60 -5
51 -5 109 20 161 68 30 28 46 78 25 78 -7 0 -5 5 5 11 14 8 22 8 30 -1 9 -8 7
-10 -8 -5 -16 6 -17 5 -5 -4 13 -10 13 -12 0 -21 -10 -7 -11 -10 -2 -10 7 0
17 11 24 25 6 13 14 23 18 20 7 -4 52 41 64 65 4 8 -6 0 -23 -18 -17 -18 -31
-28 -31 -23 0 6 5 13 10 16 6 3 10 11 10 16 0 6 -4 7 -10 4 -5 -3 -10 2 -10
11 0 14 3 15 12 6 7 -7 17 -8 29 -1 10 5 24 8 31 7 7 -2 12 2 11 9 -2 6 6 15
17 18 11 4 27 18 35 33 8 15 14 23 15 19 0 -4 22 15 50 42 30 30 48 56 44 64
-3 8 -1 18 5 22 7 4 8 0 4 -11 -5 -14 -3 -15 15 -5 11 6 23 20 27 31 3 11 9
19 13 17 9 -3 97 85 98 98 0 6 5 19 9 29 8 19 9 19 16 0 6 -14 8 -15 8 -3 1
11 11 16 33 16 18 0 27 -2 20 -4 -6 -3 -12 -9 -12 -15 0 -5 8 -7 18 -4 12 4
26 -1 37 -14 22 -24 14 -27 -10 -4 -9 9 -19 14 -22 11 -7 -7 184 -197 198
-197 6 0 8 -4 5 -9 -7 -11 60 -63 83 -66 9 -1 30 -7 46 -14 24 -10 38 -10 70
0 22 7 45 13 52 14 7 0 25 13 41 28 15 15 31 25 34 22 3 -3 8 1 12 10 4 12 2
13 -12 6 -11 -6 -24 -6 -33 0 -12 7 -12 9 1 10 8 1 20 2 25 4 6 1 16 3 23 3 6
1 12 8 12 16 0 8 7 16 15 20 16 6 21 46 6 46 -5 0 -7 -10 -5 -22 4 -21 4 -21
-4 -3 -6 13 -4 31 5 52 15 37 17 72 4 92 -7 10 -9 6 -9 -15 1 -16 0 -42 -1
-59 -2 -28 -3 -27 -17 15 -16 53 -17 60 -4 40 13 -20 19 -10 13 22 -3 15 -10
25 -15 22 -5 -3 -8 0 -6 8 2 8 -19 37 -47 64 -27 27 -43 40 -35 29 14 -18 14
-19 -2 -7 -9 8 -22 11 -27 8 -5 -4 -13 -2 -16 4 -4 6 -1 9 7 8 21 -5 15 26 -8
37 -12 6 -28 16 -35 22 -8 5 -24 9 -37 8 -32 -2 -46 18 -32 46 10 17 9 24 -4
37 -13 13 -17 13 -33 1 -16 -13 -17 -12 -4 4 12 15 10 21 -20 51 -18 19 -37
32 -41 30 -5 -3 -7 0 -6 8 2 7 -3 12 -10 10 -8 -1 -11 2 -7 8 8 13 -105 127
-140 140 -37 14 -134 12 -170 -4z m-142 -163 c-7 -2 -11 -10 -9 -16 1 -7 1 -9
-1 -4 -9 14 -23 7 -23 -13 0 -11 -3 -20 -7 -21 -5 0 -16 -2 -26 -4 -9 -2 -15
1 -11 6 3 5 10 7 15 4 5 -4 12 2 16 12 7 21 45 54 53 46 3 -3 0 -8 -7 -10z
m496 -50 c0 -5 -7 -24 -15 -43 -9 -22 -12 -26 -9 -10 2 14 5 33 5 43 0 9 5 17
10 17 6 0 10 -3 9 -7z m-576 -43 c3 -11 1 -17 -4 -14 -6 3 -16 0 -24 -6 -21
-17 -19 0 3 21 9 10 18 18 18 18 1 1 4 -8 7 -19z m91 -15 c7 -30 7 -30 -9 -7
-9 12 -13 27 -10 33 9 13 11 11 19 -26z m-24 -15 c0 -5 -4 -10 -10 -10 -5 0
-10 5 -10 10 0 6 5 10 10 10 6 0 10 -4 10 -10z m-70 -10 c0 -5 -2 -10 -4 -10
-3 0 -8 5 -11 10 -3 6 -1 10 4 10 6 0 11 -4 11 -10z m-30 -10 c0 -5 -2 -10 -4
-10 -3 0 -8 5 -11 10 -3 6 -1 10 4 10 6 0 11 -4 11 -10z m145 -28 c5 -12 13
-22 17 -22 5 0 8 -7 8 -15 0 -8 -2 -15 -4 -15 -2 0 -13 -3 -23 -7 -15 -6 -16
-4 -5 9 10 12 10 20 -1 42 -8 14 -17 23 -20 19 -4 -3 -7 -1 -7 6 0 19 24 7 35
-17z m-61 10 c3 -5 -1 -9 -9 -9 -8 0 -15 4 -15 9 0 4 4 8 9 8 6 0 12 -4 15 -8z
m-151 -15 c-17 -9 -19 -16 -12 -29 8 -14 7 -16 -6 -12 -29 12 -6 54 30 53 6 0
0 -5 -12 -12z m647 3 c-18 -12 -30 -13 -30 -2 0 4 10 9 22 9 18 2 20 0 8 -7z
m-54 -45 c-14 -14 -16 -14 -16 -2 0 9 6 17 13 20 19 7 21 -1 3 -18z m278 6 c3
-4 -4 -7 -14 -6 -27 2 -33 10 -10 12 11 1 22 -2 24 -6z m-224 -21 c0 -5 -2
-10 -4 -10 -3 0 -8 5 -11 10 -3 6 -1 10 4 10 6 0 11 -4 11 -10z m-370 -10 c0
-5 -4 -10 -10 -10 -5 0 -10 5 -10 10 0 6 5 10 10 10 6 0 10 -4 10 -10z m280
-11 c-11 -8 -12 -12 -2 -16 6 -2 12 -9 12 -15 0 -6 -9 -3 -20 7 -22 20 -18 35
8 35 15 0 15 -2 2 -11z m33 -4 c-3 -9 -8 -14 -10 -11 -3 3 -2 9 2 15 9 16 15
13 8 -4z m-698 -35 c-4 -6 -11 -8 -16 -5 -16 11 -10 -7 9 -22 15 -13 15 -13
-5 -3 -16 7 -23 7 -23 0 0 -5 -6 -10 -14 -10 -11 0 -8 7 7 25 21 24 55 36 42
15z m425 0 c0 -5 -4 -10 -10 -10 -5 0 -10 5 -10 10 0 6 5 10 10 10 6 0 10 -4
10 -10z m622 -9 c-3 -9 -1 -12 6 -7 7 4 12 2 12 -4 0 -6 4 -9 9 -5 5 3 12 1
15 -3 3 -5 -9 -8 -27 -7 -51 4 -53 5 -37 15 13 9 13 11 0 20 -12 7 -10 9 7 8
14 -2 19 -7 15 -17z m-1012 5 c0 -3 -4 -8 -10 -11 -5 -3 -10 -1 -10 4 0 6 5
11 10 11 6 0 10 -2 10 -4z m424 -22 c3 -8 2 -12 -4 -9 -6 3 -10 10 -10 16 0
14 7 11 14 -7z m126 -13 c0 -6 -4 -13 -10 -16 -5 -3 -10 1 -10 9 0 9 5 16 10
16 6 0 10 -4 10 -9z m-650 -30 c0 -9 -41 -23 -49 -16 -3 4 28 20 47 24 1 1 2
-3 2 -8z m680 -23 c0 -5 -7 -3 -15 6 -8 8 -15 18 -15 22 0 3 7 1 15 -6 8 -7
15 -17 15 -22z m-650 7 c0 -8 -4 -15 -10 -15 -5 0 -7 7 -4 15 4 8 8 15 10 15
2 0 4 -7 4 -15z m-70 -26 c0 8 3 12 6 8 3 -3 2 -12 -2 -19 -5 -7 -9 -26 -9
-42 0 -17 -7 -31 -15 -34 -12 -3 -12 -1 -2 5 10 7 8 14 -8 28 -21 19 -27 45
-9 45 5 0 8 -4 5 -8 -7 -12 12 -38 21 -28 4 5 3 11 -3 13 -7 2 -9 13 -7 24 5
16 8 18 14 7 7 -11 9 -10 9 1z m40 1 c0 -5 -4 -10 -10 -10 -5 0 -10 5 -10 10
0 6 5 10 10 10 6 0 10 -4 10 -10z m723 -30 c-21 -24 -18 -24 -34 -3 -12 15
-12 16 3 10 10 -3 20 -2 23 3 4 6 10 10 15 10 6 0 2 -9 -7 -20z m-243 2 c0 -4
-10 -13 -22 -21 -23 -14 -23 -14 -4 8 20 22 26 25 26 13z m276 -29 c-1 -32 2
-37 18 -35 15 3 16 1 5 -11 -11 -11 -16 -11 -31 2 -10 9 -14 17 -8 19 5 2 10
8 10 14 0 6 -7 7 -16 4 -10 -4 -13 -2 -7 7 6 11 26 36 29 37 1 0 1 -17 0 -37z
m411 -30 c-3 -10 -5 -2 -5 17 0 19 2 27 5 18 2 -10 2 -26 0 -35z m-1337 -28
c-7 -8 -18 -15 -24 -15 -6 0 -3 5 7 11 9 5 17 18 18 27 0 11 2 12 6 4 3 -7 -1
-19 -7 -27z m42 10 c3 -13 2 -22 -2 -20 -11 7 -20 45 -10 45 4 0 10 -11 12
-25z m525 -7 c-3 -8 -6 -5 -6 6 -1 11 2 17 5 13 3 -3 4 -12 1 -19z m444 -23
c5 4 9 -1 9 -9 0 -9 -4 -16 -9 -16 -10 0 -22 25 -20 43 1 7 3 4 6 -6 2 -9 9
-15 14 -12z m-37 -1 c9 -24 2 -26 -12 -4 -7 11 -8 20 -3 20 5 0 12 -7 15 -16z
m-974 -14 c0 -5 -4 -10 -10 -10 -5 0 -10 5 -10 10 0 6 5 10 10 10 6 0 10 -4
10 -10z m40 -10 c0 -5 -8 -10 -17 -10 -15 0 -16 2 -3 10 19 12 20 12 20 0z
m-76 -24 c-3 -9 -10 -16 -15 -16 -6 0 -5 9 1 21 13 24 24 20 14 -5z m506 10
c0 -3 -4 -8 -10 -11 -5 -3 -10 -1 -10 4 0 6 5 11 10 11 6 0 10 -2 10 -4z m614
-7 c3 -3 -10 -5 -29 -4 -19 0 -37 4 -41 7 -3 4 10 6 29 5 20 -2 38 -5 41 -8z
m-602 -21 c-7 -7 -12 -8 -12 -2 0 14 12 26 19 19 2 -3 -1 -11 -7 -17z m578 -6
c13 2 25 -3 27 -12 4 -13 3 -13 -6 0 -9 12 -13 12 -19 2 -7 -10 -13 -9 -28 5
-11 10 -15 15 -8 10 6 -4 22 -6 34 -5z m-1110 -6 c0 -3 -4 -8 -10 -11 -5 -3
-10 -1 -10 4 0 6 5 11 10 11 6 0 10 -2 10 -4z m-35 -26 c3 -6 -1 -7 -9 -4 -11
4 -16 0 -16 -12 0 -9 -3 -15 -6 -11 -9 8 3 37 15 37 5 0 13 -4 16 -10z m-48
-22 c2 -17 0 -19 -7 -8 -5 8 -6 18 -4 22 8 12 10 10 11 -14z m537 -19 c-9 -10
-21 -16 -27 -12 -6 3 -1 10 12 15 13 5 19 12 15 19 -5 8 -3 9 5 5 9 -6 8 -13
-5 -27z m760 22 c3 -4 -6 -6 -19 -3 -14 2 -25 6 -25 8 0 8 39 4 44 -5z m-1302
-163 c-8 -8 -9 -4 -5 13 4 13 8 18 11 10 2 -7 -1 -18 -6 -23z m22 -24 c3 -8 2
-12 -3 -9 -5 3 -12 1 -16 -5 -7 -12 -25 -4 -25 11 0 6 4 8 9 4 5 -3 12 -1 16
5 8 14 12 13 19 -6z m68 -72 c-11 -11 -23 -18 -26 -15 -3 3 5 14 17 23 29 24
35 18 9 -8z m128 8 c7 -13 7 -20 1 -20 -6 0 -15 9 -21 20 -7 13 -7 20 -1 20 6
0 15 -9 21 -20z m65 10 c-3 -5 -1 -10 4 -10 6 0 11 -4 11 -9 0 -5 -11 -8 -24
-8 -22 0 -23 1 -8 18 18 20 27 25 17 9z" />
        <path d="M1390 1495 c-8 -9 -8 -15 -2 -15 12 0 26 19 19 26 -2 2 -10 -2 -17
-11z" />
        <path d="M1225 1330 c-10 -11 -13 -20 -8 -20 13 0 38 29 31 35 -3 3 -13 -4
-23 -15z" />
        <path
            d="M2256 1323 c-4 -9 -1 -21 5 -27 9 -8 10 -7 6 7 -8 22 9 23 17 1 4 -9
9 -14 13 -10 3 3 16 -2 27 -11 12 -10 5 -1 -14 19 -40 42 -45 45 -54 21z" />
    </g>
</svg>